# xmcd
#
# Track frame offsets: 
#        150
#        10587
#        24517
#        33756
#        46863
#        58663
#        69742
#        85095
#        99755
#        111583
#        121728
#        135158
#        145972
#        160138
#        170581
#        191657
#        202680
#        216621
#        227202
#        246330
#
# Disc length: 3446 seconds
#
# Revision: 3
# Processed by: cddbd v1.5.2PL0 Copyright (c) Steve Scherf et al.
# Submitted via: ExactAudioCopy v1.0b1
#
DISCID=0c0d7414
DTITLE=Buddy Guy and Junior Wells - 1 Pure Raw Blues
DYEAR=2014
DGENRE=Blues
TTITLE0=Buddy Guy - First Time I Met the Blues
TTITLE1=Junior Wells - Hoodoo Man Blues
TTITLE2=Buddy Guy - The Treasure Untold
TTITLE3=Junior Wells - Junior's Wail
TTITLE4=Buddy Guy - Try To Quit You Baby
TTITLE5=Junior Wells - Tomorrow Night (feat. Elmore James)
TTITLE6=Buddy Guy - Skippin'
TTITLE7=Junior Wells - 'Bout The Break Of Day
TTITLE8=Buddy Guy - Ten Years Ago
TTITLE9=Junior Wells - So Tired
TTITLE10=Buddy Guy - This Is the End
TTITLE11=Junior Wells - Come On In This House
TTITLE12=Broken Hearted Blues - Buddy Guy
TTITLE13=Junior Wells - You Don't Care
TTITLE14=Buddy Guy and Junior Wells - Blue Monday (Live)
TTITLE15=Junior Wells - You Sure Look Good To Me
TTITLE16=Buddy Guy - Womans Blues (Live)
TTITLE17=Junior Wells - The Things I'd Do For You
TTITLE18=Phil and Buddy Guy - Get Up Get Down (Live)
TTITLE19=Junior Wells - Two-Headed Woman
EXTD=
EXTT0=
EXTT1=
EXTT2=
EXTT3=
EXTT4=
EXTT5=
EXTT6=
EXTT7=
EXTT8=
EXTT9=
EXTT10=
EXTT11=
EXTT12=
EXTT13=
EXTT14=
EXTT15=
EXTT16=
EXTT17=
EXTT18=
EXTT19=
PLAYORDER=
